<?xml version="1.0" encoding="UTF-8"?>
<!DOCTYPE svg PUBLIC "-//W3C//DTD SVG 1.1//EN" "http://www.w3.org/Graphics/SVG/1.1/DTD/svg11.dtd">
<!-- Creator: CorelDRAW 2020 (64-Bit) -->
<svg xmlns="http://www.w3.org/2000/svg" xml:space="preserve" width="297mm" height="210mm" version="1.1" style="shape-rendering:geometricPrecision; text-rendering:geometricPrecision; image-rendering:optimizeQuality; fill-rule:evenodd; clip-rule:evenodd"
viewBox="0 0 29700 21000"
 xmlns:xlink="http://www.w3.org/1999/xlink"
 xmlns:xodm="http://www.corel.com/coreldraw/odm/2003">
 <defs>
  <style type="text/css">
   <![CDATA[
    .str0 {stroke:black;stroke-width:20;stroke-miterlimit:22.9256}
    .fil0 {fill:black}
    .fil2 {fill:#010101}
    .fil1 {fill:#F9F9F9}
   ]]>
  </style>
 </defs>
 <g id="Capa_x0020_1">
  <metadata id="CorelCorpID_0Corel-Layer"/>
  <rect class="fil0 str0" x="-150.54" y="6007.13" width="30000" height="9000"/>
  <g id="_1197443968">
   <path class="fil1" d="M14285.6 10795.42l-1208.54 1287.07c-183.76,205.01 -678.03,703.55 -738.39,836.11l410.35 -5.2c131.33,-178.54 248.27,-285.22 417.76,-458.43 156.17,-159.6 1188.28,-1343.24 1339.12,-1406.59l1042.95 1384.83c111.36,146.22 242.11,366.28 368.16,475.97l1448.79 8.36c-127.79,-274.15 -1887.69,-2483.08 -2036.77,-2783.76 83.04,-71.62 141.1,-144.08 219.93,-236 347.8,-405.58 984.19,-1027.25 1414.72,-1512.61l168.05 -186.41c74.88,-92.16 13.97,6.15 68.15,-99.45 -543.17,-13.48 -453.04,59.22 -893.83,545.26l-461.5 491.1c-82.3,92.44 -163.2,153.3 -246.05,247.06 -111.47,126.16 -331.72,419.47 -494.3,491.36 -106.67,-211.6 -1180.3,-1506.49 -1290.27,-1771.24l-1480.79 -7.19c116.24,278.11 1905.96,2496.96 1952.46,2699.76z"/>
   <path class="fil2" d="M16057.55 12586.52l690.68 11.36c-40.63,-120.12 -2141.93,-2911.12 -2304.18,-3117.15l-775.62 -1059.68 -703.26 -7.09c79.66,196.38 2402.72,3239.35 2707.4,3649.18 107.83,145.05 304.2,379.19 384.98,523.38z"/>
  </g>
 </g>
</svg>
